<svg xmlns="http://www.w3.org/2000/svg" viewBox="0 0 1200 630" role="img" aria-label="Yasim and Fiza Engagement Ceremony, Friday 24 July 2026">
  <defs>
    <linearGradient id="bg" x1="0" y1="0" x2="0" y2="1">
      <stop offset="0" stop-color="#FFFDF8"/>
      <stop offset="0.55" stop-color="#FDECEF"/>
      <stop offset="1" stop-color="#F8EEDC"/>
    </linearGradient>
    <radialGradient id="glow" cx="0.5" cy="0.28" r="0.6">
      <stop offset="0" stop-color="#F7C8D0" stop-opacity="0.45"/>
      <stop offset="1" stop-color="#F7C8D0" stop-opacity="0"/>
    </radialGradient>
  </defs>

  <rect width="1200" height="630" fill="url(#bg)"/>
  <rect width="1200" height="630" fill="url(#glow)"/>

  <!-- ornamental frame -->
  <rect x="36" y="36" width="1128" height="558" rx="26" fill="none" stroke="#B76E79" stroke-opacity="0.35" stroke-width="2"/>
  <rect x="50" y="50" width="1100" height="530" rx="20" fill="none" stroke="#D8A75B" stroke-opacity="0.45" stroke-width="1.5"/>

  <!-- interlocking rings -->
  <g transform="translate(600,120)">
    <circle cx="-16" cy="6" r="30" fill="none" stroke="#B76E79" stroke-width="4"/>
    <circle cx="16" cy="6" r="30" fill="none" stroke="#B76E79" stroke-width="4"/>
    <path d="M16 -44 25 -34 16 -24 7 -34Z" fill="#D8A75B"/>
  </g>

  <!-- Bismillah transliteration -->
  <text x="600" y="232" text-anchor="middle" font-family="Georgia, 'Times New Roman', serif" font-style="italic" font-size="30" fill="#7A5C61">Bismillahir Rahmanir Raheem</text>

  <!-- title -->
  <text x="600" y="286" text-anchor="middle" font-family="Poppins, Arial, sans-serif" font-size="26" letter-spacing="9" fill="#B76E79">ENGAGEMENT CEREMONY</text>

  <!-- couple names -->
  <text x="600" y="392" text-anchor="middle" font-family="'Playfair Display', Georgia, serif" font-weight="600" font-size="104" fill="#4A2F35">Yasim
    <tspan font-family="Georgia, serif" font-style="italic" font-size="64" fill="#D8A75B"> &amp; </tspan>Fiza</text>

  <!-- divider -->
  <g transform="translate(600,438)">
    <line x1="-150" y1="0" x2="-26" y2="0" stroke="#B76E79" stroke-opacity="0.6" stroke-width="2"/>
    <line x1="26" y1="0" x2="150" y2="0" stroke="#B76E79" stroke-opacity="0.6" stroke-width="2"/>
    <path d="M0 -12c5 7 5 17 0 24-5-7-5-17 0-24Z" fill="#D8A75B"/>
  </g>

  <!-- date / venue -->
  <text x="600" y="498" text-anchor="middle" font-family="'Cormorant Garamond', Georgia, serif" font-size="40" font-weight="600" fill="#4A2F35">Friday, 24 July 2026</text>
  <text x="600" y="540" text-anchor="middle" font-family="Poppins, Arial, sans-serif" font-size="24" fill="#7A5C61">Rosewood Banquet Hall · Bhisri, Pune, Maharashtra</text>
</svg>
